<?xml version="1.0" encoding="UTF-8" standalone="no"?>
<!-- Created with Inkscape (http://www.inkscape.org/) -->

<svg
   xmlns:dc="http://purl.org/dc/elements/1.1/"
   xmlns:cc="http://creativecommons.org/ns#"
   xmlns:rdf="http://www.w3.org/1999/02/22-rdf-syntax-ns#"
   xmlns:svg="http://www.w3.org/2000/svg"
   xmlns="http://www.w3.org/2000/svg"
   xmlns:sodipodi="http://sodipodi.sourceforge.net/DTD/sodipodi-0.dtd"
   xmlns:inkscape="http://www.inkscape.org/namespaces/inkscape"
   width="186.26666mm"
   height="157.3036mm"
   viewBox="0 0 659.99999 557.37497"
   id="svg2"
   version="1.1"
   inkscape:version="0.91 r13725"
   sodipodi:docname="drawing.svg">
  <defs
     id="defs4">
    <clipPath
       id="clipPath4169"
       clipPathUnits="userSpaceOnUse">
      <path
         style="clip-rule:evenodd"
         inkscape:connector-curvature="0"
         id="path4171"
         d="m 0,0.1 595.2,0 0,841.8 L 0,841.9 0,0.1 Z" />
    </clipPath>
  </defs>
  <sodipodi:namedview
     id="base"
     pagecolor="#ffffff"
     bordercolor="#666666"
     borderopacity="1.0"
     inkscape:pageopacity="0.0"
     inkscape:pageshadow="2"
     inkscape:zoom="0.35"
     inkscape:cx="333.5"
     inkscape:cy="126.25"
     inkscape:document-units="px"
     inkscape:current-layer="layer1"
     showgrid="false"
     fit-margin-top="0"
     fit-margin-left="0"
     fit-margin-right="0"
     fit-margin-bottom="0"
     inkscape:window-width="1920"
     inkscape:window-height="1148"
     inkscape:window-x="0"
     inkscape:window-y="25"
     inkscape:window-maximized="1" />
  <metadata
     id="metadata7">
    <rdf:RDF>
      <cc:Work
         rdf:about="">
        <dc:format>image/svg+xml</dc:format>
        <dc:type
           rdf:resource="http://purl.org/dc/dcmitype/StillImage" />
        <dc:title></dc:title>
      </cc:Work>
    </rdf:RDF>
  </metadata>
  <g
     inkscape:label="Layer 1"
     inkscape:groupmode="layer"
     id="layer1"
     transform="translate(-41.5,-101.2372)">
    <path
       d="m 236.875,423.6122 327.25,0 0,-6.5 20,14.25 -20,14.25 0,-6.5 -327.25,0 0,-15.5 z m 0,-6.5 0,0 z m 347.25,28.5 0,0 z"
       style="fill:#cccccc;fill-opacity:1;fill-rule:evenodd;stroke:none"
       id="path4175"
       inkscape:connector-curvature="0" />
    <path
       inkscape:connector-curvature="0"
       id="path4179"
       style="fill:none;stroke:#3465a4;stroke-width:1;stroke-linecap:butt;stroke-linejoin:round;stroke-miterlimit:10;stroke-dasharray:none;stroke-opacity:1"
       d="m 236.875,423.6122 327.25,0 0,-6.5 20,14.25 -20,14.25 0,-6.5 -327.25,0 0,-15.5 z" />
    <path
       inkscape:connector-curvature="0"
       id="path4183"
       style="fill:none;stroke:#3465a4;stroke-width:1;stroke-linecap:butt;stroke-linejoin:round;stroke-miterlimit:10;stroke-dasharray:none;stroke-opacity:1"
       d="m 236.875,417.1122 0,0 z" />
    <path
       inkscape:connector-curvature="0"
       id="path4187"
       style="fill:none;stroke:#3465a4;stroke-width:1;stroke-linecap:butt;stroke-linejoin:round;stroke-miterlimit:10;stroke-dasharray:none;stroke-opacity:1"
       d="m 584.125,445.6122 0,0 z" />
    <path
       d="m 261.625,484.4872 -56.625,0 0,-262.25 113.375,0 0,262.25 -56.75,0 z"
       style="fill:#004586;fill-opacity:1;fill-rule:evenodd;stroke:none"
       id="path4189"
       inkscape:connector-curvature="0" />
    <path
       inkscape:connector-curvature="0"
       id="path4193"
       style="fill:none;stroke:#3465a4;stroke-width:1;stroke-linecap:butt;stroke-linejoin:round;stroke-miterlimit:10;stroke-dasharray:none;stroke-opacity:1"
       d="m 261.625,484.4872 -56.625,0 0,-262.25 113.375,0 0,262.25 -56.75,0 z" />
    <text
       id="text4197"
       style="font-variant:normal;font-weight:normal;font-size:22.5px;font-family:'Liberation Sans';-inkscape-font-specification:LiberationSans;writing-mode:lr-tb;fill:#ffffff;fill-opacity:1;fill-rule:nonzero;stroke:none"
       x="224.875"
       y="348.61221">
      <tspan
         id="tspan4199"
         sodipodi:role="line"
         y="348.61221"
         x="224.875 243.61751 256.1275 268.63751 281.01251 286.00751">Module</tspan>
    </text>
    <text
       id="text4203"
       style="font-variant:normal;font-weight:normal;font-size:22.5px;font-family:'Liberation Sans';-inkscape-font-specification:LiberationSans;writing-mode:lr-tb;fill:#ffffff;fill-opacity:1;fill-rule:nonzero;stroke:none"
       x="235.5"
       y="373.73721">
      <tspan
         id="tspan4205"
         sodipodi:role="line"
         y="373.73721"
         x="235.5 248.00999 252.8925 265.4025 276.6525">block</tspan>
    </text>
    <path
       d="m 396.25,484.4872 -56.625,0 0,-262.25 113.375,0 0,262.25 -56.75,0 z"
       style="fill:#004586;fill-opacity:1;fill-rule:evenodd;stroke:none"
       id="path4207"
       inkscape:connector-curvature="0" />
    <path
       inkscape:connector-curvature="0"
       id="path4211"
       style="fill:none;stroke:#3465a4;stroke-width:1;stroke-linecap:butt;stroke-linejoin:round;stroke-miterlimit:10;stroke-dasharray:none;stroke-opacity:1"
       d="m 396.25,484.4872 -56.625,0 0,-262.25 113.375,0 0,262.25 -56.75,0 z" />
    <text
       id="text4215"
       style="font-variant:normal;font-weight:normal;font-size:22.5px;font-family:'Liberation Sans';-inkscape-font-specification:LiberationSans;writing-mode:lr-tb;fill:#ffffff;fill-opacity:1;fill-rule:nonzero;stroke:none"
       x="359.625"
       y="348.61221">
      <tspan
         id="tspan4217"
         sodipodi:role="line"
         y="348.61221"
         x="359.625 378.255 390.76501 403.27499 415.64999 420.64499">Module</tspan>
    </text>
    <text
       id="text4221"
       style="font-variant:normal;font-weight:normal;font-size:22.5px;font-family:'Liberation Sans';-inkscape-font-specification:LiberationSans;writing-mode:lr-tb;fill:#ffffff;fill-opacity:1;fill-rule:nonzero;stroke:none"
       x="370.125"
       y="373.73721">
      <tspan
         id="tspan4223"
         sodipodi:role="line"
         y="373.73721"
         x="370.125 382.63501 387.51749 400.0275 411.2775">block</tspan>
    </text>
    <path
       d="m 453,200.9872 -248,0 0,-42.5 496,0 0,42.5 -248,0 z"
       style="fill:#004586;fill-opacity:1;fill-rule:evenodd;stroke:none"
       id="path4225"
       inkscape:connector-curvature="0" />
    <path
       inkscape:connector-curvature="0"
       id="path4229"
       style="fill:none;stroke:#3465a4;stroke-width:1;stroke-linecap:butt;stroke-linejoin:round;stroke-miterlimit:10;stroke-dasharray:none;stroke-opacity:1"
       d="m 453,200.9872 -248,0 0,-42.5 496,0 0,42.5 -248,0 z" />
    <text
       id="text4233"
       style="font-variant:normal;font-weight:normal;font-size:22.5px;font-family:'Liberation Sans';-inkscape-font-specification:LiberationSans;writing-mode:lr-tb;fill:#ffffff;fill-opacity:1;fill-rule:nonzero;stroke:none"
       x="343.75"
       y="187.6122">
      <tspan
         id="tspan4235"
         sodipodi:role="line"
         y="187.6122"
         x="343.75 358.73499 371.245 382.495 393.745 398.6275 409.98999 422.36499 427.35999 433.5925 446.10251 457.35251 468.60251 481.11249 492.22751 503.59 509.82251 522.19751 527.1925 539.70251 550.8175">Physical access block</tspan>
    </text>
    <path
       d="m 247.5,197.9872 14.125,-14.75 14.25,14.75 -7.75,0 0,27.25 7.75,0 -14.25,14.75 -14.125,-14.75 7.625,0 0,-27.25 -7.625,0 z m 0,-14.75 0,0 z m 28.375,56.75 0,0 z"
       style="fill:#cccccc;fill-opacity:1;fill-rule:evenodd;stroke:none"
       id="path4237"
       inkscape:connector-curvature="0" />
    <path
       inkscape:connector-curvature="0"
       id="path4241"
       style="fill:none;stroke:#3465a4;stroke-width:1;stroke-linecap:butt;stroke-linejoin:round;stroke-miterlimit:10;stroke-dasharray:none;stroke-opacity:1"
       d="m 247.5,197.9872 14.125,-14.75 14.25,14.75 -7.75,0 0,27.25 7.75,0 -14.25,14.75 -14.125,-14.75 7.625,0 0,-27.25 -7.625,0 z" />
    <path
       inkscape:connector-curvature="0"
       id="path4245"
       style="fill:none;stroke:#3465a4;stroke-width:1;stroke-linecap:butt;stroke-linejoin:round;stroke-miterlimit:10;stroke-dasharray:none;stroke-opacity:1"
       d="m 247.5,183.2372 0,0 z" />
    <path
       inkscape:connector-curvature="0"
       id="path4249"
       style="fill:none;stroke:#3465a4;stroke-width:1;stroke-linecap:butt;stroke-linejoin:round;stroke-miterlimit:10;stroke-dasharray:none;stroke-opacity:1"
       d="m 275.875,239.9872 0,0 z" />
    <path
       d="m 382.125,197.9872 14.125,-14.625 14.25,14.625 -7.625,0 0,27.375 7.625,0 -14.25,14.625 -14.125,-14.625 7.625,0 0,-27.375 -7.625,0 z m 0,-14.625 0,0 z m 28.375,56.625 0,0 z"
       style="fill:#cccccc;fill-opacity:1;fill-rule:evenodd;stroke:none"
       id="path4251"
       inkscape:connector-curvature="0" />
    <path
       inkscape:connector-curvature="0"
       id="path4255"
       style="fill:none;stroke:#3465a4;stroke-width:1;stroke-linecap:butt;stroke-linejoin:round;stroke-miterlimit:10;stroke-dasharray:none;stroke-opacity:1"
       d="m 382.125,197.9872 14.125,-14.625 14.25,14.625 -7.625,0 0,27.375 7.625,0 -14.25,14.625 -14.125,-14.625 7.625,0 0,-27.375 -7.625,0 z" />
    <path
       inkscape:connector-curvature="0"
       id="path4259"
       style="fill:none;stroke:#3465a4;stroke-width:1;stroke-linecap:butt;stroke-linejoin:round;stroke-miterlimit:10;stroke-dasharray:none;stroke-opacity:1"
       d="m 382.125,183.3622 0,0 z" />
    <path
       inkscape:connector-curvature="0"
       id="path4263"
       style="fill:none;stroke:#3465a4;stroke-width:1;stroke-linecap:butt;stroke-linejoin:round;stroke-miterlimit:10;stroke-dasharray:none;stroke-opacity:1"
       d="m 410.5,239.9872 0,0 z" />
    <path
       d="m 453,658.1122 -248,0 0,-42.5 496,0 0,42.5 -248,0 z"
       style="fill:#aecf00;fill-opacity:1;fill-rule:evenodd;stroke:none"
       id="path4265"
       inkscape:connector-curvature="0" />
    <path
       inkscape:connector-curvature="0"
       id="path4269"
       style="fill:none;stroke:#3465a4;stroke-width:1;stroke-linecap:butt;stroke-linejoin:round;stroke-miterlimit:10;stroke-dasharray:none;stroke-opacity:1"
       d="m 453,658.1122 -248,0 0,-42.5 496,0 0,42.5 -248,0 z" />
    <text
       id="text4273"
       style="font-variant:normal;font-weight:normal;font-size:22.5px;font-family:'Liberation Sans';-inkscape-font-specification:LiberationSans;writing-mode:lr-tb;fill:#000000;fill-opacity:1;fill-rule:nonzero;stroke:none"
       x="400.625"
       y="644.61218">
      <tspan
         id="tspan4275"
         sodipodi:role="line"
         y="644.61218"
         x="400.625 415.60999 428.12 439.37 450.62 463.13 468.01251 480.52249 492.89749">Backplane</tspan>
    </text>
    <path
       d="m 453,601.3622 -248,0 0,-42.5 496,0 0,42.5 -248,0 z"
       style="fill:#004586;fill-opacity:1;fill-rule:evenodd;stroke:none"
       id="path4277"
       inkscape:connector-curvature="0" />
    <path
       inkscape:connector-curvature="0"
       id="path4281"
       style="fill:none;stroke:#3465a4;stroke-width:1;stroke-linecap:butt;stroke-linejoin:round;stroke-miterlimit:10;stroke-dasharray:none;stroke-opacity:1"
       d="m 453,601.3622 -248,0 0,-42.5 496,0 0,42.5 -248,0 z" />
    <text
       id="text4285"
       style="font-variant:normal;font-weight:normal;font-size:22.5px;font-family:'Liberation Sans';-inkscape-font-specification:LiberationSans;writing-mode:lr-tb;fill:#ffffff;fill-opacity:1;fill-rule:nonzero;stroke:none"
       x="349.375"
       y="587.98718">
      <tspan
         id="tspan4287"
         sodipodi:role="line"
         y="587.98718"
         x="349.375 363.10001 375.61002 386.86002 393.0925 399.4375 410.6875 423.0625 441.80499 460.54752 473.0575 485.5675 497.9425 504.17499 516.685 521.67999 534.05499 545.30499">Fast command block</tspan>
    </text>
    <path
       d="m 268.75,594.8622 14.125,-14.75 14.25,14.75 -7.625,0 0,27.25 7.625,0 -14.25,14.75 -14.125,-14.75 7.625,0 0,-27.25 -7.625,0 z m 0,-14.75 0,0 z m 28.375,56.75 0,0 z"
       style="fill:#cccccc;fill-opacity:1;fill-rule:evenodd;stroke:none"
       id="path4289"
       inkscape:connector-curvature="0" />
    <path
       inkscape:connector-curvature="0"
       id="path4293"
       style="fill:none;stroke:#3465a4;stroke-width:1;stroke-linecap:butt;stroke-linejoin:round;stroke-miterlimit:10;stroke-dasharray:none;stroke-opacity:1"
       d="m 268.75,594.8622 14.125,-14.75 14.25,14.75 -7.625,0 0,27.25 7.625,0 -14.25,14.75 -14.125,-14.75 7.625,0 0,-27.25 -7.625,0 z" />
    <path
       inkscape:connector-curvature="0"
       id="path4297"
       style="fill:none;stroke:#3465a4;stroke-width:1;stroke-linecap:butt;stroke-linejoin:round;stroke-miterlimit:10;stroke-dasharray:none;stroke-opacity:1"
       d="m 268.75,580.1122 0,0 z" />
    <path
       inkscape:connector-curvature="0"
       id="path4301"
       style="fill:none;stroke:#3465a4;stroke-width:1;stroke-linecap:butt;stroke-linejoin:round;stroke-miterlimit:10;stroke-dasharray:none;stroke-opacity:1"
       d="m 297.125,636.8622 0,0 z" />
    <path
       d="m 453,144.3622 -248,0 0,-42.625 496,0 0,42.625 -248,0 z"
       style="fill:#aecf00;fill-opacity:1;fill-rule:evenodd;stroke:none"
       id="path4303"
       inkscape:connector-curvature="0" />
    <path
       inkscape:connector-curvature="0"
       id="path4307"
       style="fill:none;stroke:#3465a4;stroke-width:1;stroke-linecap:butt;stroke-linejoin:round;stroke-miterlimit:10;stroke-dasharray:none;stroke-opacity:1"
       d="m 453,144.3622 -248,0 0,-42.625 496,0 0,42.625 -248,0 z" />
    <text
       id="text4311"
       style="font-variant:normal;font-weight:normal;font-size:22.5px;font-family:'Liberation Sans';-inkscape-font-specification:LiberationSans;writing-mode:lr-tb;fill:#000000;fill-opacity:1;fill-rule:nonzero;stroke:none"
       x="391.125"
       y="130.8622">
      <tspan
         id="tspan4313"
         sodipodi:role="line"
         y="130.8622"
         x="391.125 403.63501 409.86749 422.3775 429.87 436.10251 448.61249 454.845 468.70499 487.44751 503.57999">1 or 2 FMCs</tspan>
    </text>
    <path
       d="m 261.625,141.2372 14.25,-14.625 14.125,14.625 -7.625,0 0,27.375 7.625,0 -14.125,14.625 -14.25,-14.625 7.75,0 0,-27.375 -7.75,0 z m 0,-14.625 0,0 z m 28.375,56.75 0,0 z"
       style="fill:#cccccc;fill-opacity:1;fill-rule:evenodd;stroke:none"
       id="path4315"
       inkscape:connector-curvature="0" />
    <path
       inkscape:connector-curvature="0"
       id="path4319"
       style="fill:none;stroke:#3465a4;stroke-width:1;stroke-linecap:butt;stroke-linejoin:round;stroke-miterlimit:10;stroke-dasharray:none;stroke-opacity:1"
       d="m 261.625,141.2372 14.25,-14.625 14.125,14.625 -7.625,0 0,27.375 7.625,0 -14.125,14.625 -14.25,-14.625 7.75,0 0,-27.375 -7.75,0 z" />
    <path
       inkscape:connector-curvature="0"
       id="path4323"
       style="fill:none;stroke:#3465a4;stroke-width:1;stroke-linecap:butt;stroke-linejoin:round;stroke-miterlimit:10;stroke-dasharray:none;stroke-opacity:1"
       d="m 261.625,126.6122 0,0 z" />
    <path
       inkscape:connector-curvature="0"
       id="path4327"
       style="fill:none;stroke:#3465a4;stroke-width:1;stroke-linecap:butt;stroke-linejoin:round;stroke-miterlimit:10;stroke-dasharray:none;stroke-opacity:1"
       d="m 290,183.3622 0,0 z" />
    <path
       d="m 105.75,608.4872 -63.75,0 0,-233.875 127.5,0 0,233.875 -63.75,0 z"
       style="fill:#004586;fill-opacity:1;fill-rule:evenodd;stroke:none"
       id="path4329"
       inkscape:connector-curvature="0" />
    <path
       inkscape:connector-curvature="0"
       id="path4333"
       style="fill:none;stroke:#3465a4;stroke-width:1;stroke-linecap:butt;stroke-linejoin:round;stroke-miterlimit:10;stroke-dasharray:none;stroke-opacity:1"
       d="m 105.75,608.4872 -63.75,0 0,-233.875 127.5,0 0,233.875 -63.75,0 z" />
    <text
       id="text4337"
       style="font-variant:normal;font-weight:normal;font-size:22.5px;font-family:'Liberation Sans';-inkscape-font-specification:LiberationSans;writing-mode:lr-tb;fill:#ffffff;fill-opacity:1;fill-rule:nonzero;stroke:none"
       x="52.125"
       y="486.73721">
      <tspan
         id="tspan4339"
         sodipodi:role="line"
         y="486.73721"
         x="52.125 67.110001 79.620003 91.995003 104.505 111.9975 123.2475 128.13 139.49249 151.86749">Supervisor</tspan>
    </text>
    <text
       id="text4343"
       style="font-variant:normal;font-weight:normal;font-size:22.5px;font-family:'Liberation Sans';-inkscape-font-specification:LiberationSans;writing-mode:lr-tb;fill:#ffffff;fill-opacity:1;fill-rule:nonzero;stroke:none"
       x="79.625"
       y="511.98721">
      <tspan
         id="tspan4345"
         sodipodi:role="line"
         y="511.98721"
         x="79.625 92 96.995003 109.505 120.755">block</tspan>
    </text>
    <path
       d="m 197.375,417.1122 14.625,14.25 -14.625,14.125 0,-7.625 -27.25,0 0,7.625 -14.75,-14.125 14.75,-14.25 0,7.625 27.25,0 0,-7.625 z m 14.625,0 0,0 z m -56.625,28.375 0,0 z"
       style="fill:#cccccc;fill-opacity:1;fill-rule:evenodd;stroke:none"
       id="path4347"
       inkscape:connector-curvature="0" />
    <path
       inkscape:connector-curvature="0"
       id="path4351"
       style="fill:none;stroke:#3465a4;stroke-width:1;stroke-linecap:butt;stroke-linejoin:round;stroke-miterlimit:10;stroke-dasharray:none;stroke-opacity:1"
       d="m 197.375,417.1122 14.625,14.25 -14.625,14.125 0,-7.625 -27.25,0 0,7.625 -14.75,-14.125 14.75,-14.25 0,7.625 27.25,0 0,-7.625 z" />
    <path
       inkscape:connector-curvature="0"
       id="path4355"
       style="fill:none;stroke:#3465a4;stroke-width:1;stroke-linecap:butt;stroke-linejoin:round;stroke-miterlimit:10;stroke-dasharray:none;stroke-opacity:1"
       d="m 212,417.1122 0,0 z" />
    <path
       inkscape:connector-curvature="0"
       id="path4359"
       style="fill:none;stroke:#3465a4;stroke-width:1;stroke-linecap:butt;stroke-linejoin:round;stroke-miterlimit:10;stroke-dasharray:none;stroke-opacity:1"
       d="m 155.375,445.4872 0,0 z" />
    <path
       d="m 204.375,565.9872 14.75,14.125 -14.75,14.25 0,-7.75 -27.25,0 0,7.75 -14.625,-14.25 14.625,-14.125 0,7.625 27.25,0 0,-7.625 z m 14.75,0 0,0 z m -56.75,28.375 0,0 z"
       style="fill:#cccccc;fill-opacity:1;fill-rule:evenodd;stroke:none"
       id="path4361"
       inkscape:connector-curvature="0" />
    <path
       inkscape:connector-curvature="0"
       id="path4365"
       style="fill:none;stroke:#3465a4;stroke-width:1;stroke-linecap:butt;stroke-linejoin:round;stroke-miterlimit:10;stroke-dasharray:none;stroke-opacity:1"
       d="m 204.375,565.9872 14.75,14.125 -14.75,14.25 0,-7.75 -27.25,0 0,7.75 -14.625,-14.25 14.625,-14.125 0,7.625 27.25,0 0,-7.625 z" />
    <path
       inkscape:connector-curvature="0"
       id="path4369"
       style="fill:none;stroke:#3465a4;stroke-width:1;stroke-linecap:butt;stroke-linejoin:round;stroke-miterlimit:10;stroke-dasharray:none;stroke-opacity:1"
       d="m 219.125,565.9872 0,0 z" />
    <path
       inkscape:connector-curvature="0"
       id="path4373"
       style="fill:none;stroke:#3465a4;stroke-width:1;stroke-linecap:butt;stroke-linejoin:round;stroke-miterlimit:10;stroke-dasharray:none;stroke-opacity:1"
       d="m 162.375,594.3622 0,0 z" />
    <path
       d="m 247.5,506.2372 14.25,-14.75 14.125,14.75 -7.625,0 0,27.25 7.625,0 -14.125,14.75 -14.25,-14.75 7.625,0 0,-27.25 -7.625,0 z m 0,-14.75 0,0 z m 28.375,56.75 0,0 z"
       style="fill:#cccccc;fill-opacity:1;fill-rule:evenodd;stroke:none"
       id="path4375"
       inkscape:connector-curvature="0" />
    <path
       inkscape:connector-curvature="0"
       id="path4379"
       style="fill:none;stroke:#3465a4;stroke-width:1;stroke-linecap:butt;stroke-linejoin:round;stroke-miterlimit:10;stroke-dasharray:none;stroke-opacity:1"
       d="m 247.5,506.2372 14.25,-14.75 14.125,14.75 -7.625,0 0,27.25 7.625,0 -14.125,14.75 -14.25,-14.75 7.625,0 0,-27.25 -7.625,0 z" />
    <path
       inkscape:connector-curvature="0"
       id="path4383"
       style="fill:none;stroke:#3465a4;stroke-width:1;stroke-linecap:butt;stroke-linejoin:round;stroke-miterlimit:10;stroke-dasharray:none;stroke-opacity:1"
       d="m 247.5,491.4872 0,0 z" />
    <path
       inkscape:connector-curvature="0"
       id="path4387"
       style="fill:none;stroke:#3465a4;stroke-width:1;stroke-linecap:butt;stroke-linejoin:round;stroke-miterlimit:10;stroke-dasharray:none;stroke-opacity:1"
       d="m 275.875,548.2372 0,0 z" />
    <path
       d="m 382.125,506.2372 14.25,-14.75 14.125,14.75 -7.625,0 0,27.25 7.625,0 -14.125,14.75 -14.25,-14.75 7.75,0 0,-27.25 -7.75,0 z m 0,-14.75 0,0 z m 28.375,56.75 0,0 z"
       style="fill:#cccccc;fill-opacity:1;fill-rule:evenodd;stroke:none"
       id="path4389"
       inkscape:connector-curvature="0" />
    <path
       inkscape:connector-curvature="0"
       id="path4393"
       style="fill:none;stroke:#3465a4;stroke-width:1;stroke-linecap:butt;stroke-linejoin:round;stroke-miterlimit:10;stroke-dasharray:none;stroke-opacity:1"
       d="m 382.125,506.2372 14.25,-14.75 14.125,14.75 -7.625,0 0,27.25 7.625,0 -14.125,14.75 -14.25,-14.75 7.75,0 0,-27.25 -7.75,0 z" />
    <path
       inkscape:connector-curvature="0"
       id="path4397"
       style="fill:none;stroke:#3465a4;stroke-width:1;stroke-linecap:butt;stroke-linejoin:round;stroke-miterlimit:10;stroke-dasharray:none;stroke-opacity:1"
       d="m 382.125,491.4872 0,0 z" />
    <path
       inkscape:connector-curvature="0"
       id="path4401"
       style="fill:none;stroke:#3465a4;stroke-width:1;stroke-linecap:butt;stroke-linejoin:round;stroke-miterlimit:10;stroke-dasharray:none;stroke-opacity:1"
       d="m 410.5,548.2372 0,0 z" />
    <path
       d="m 640.75,484.4872 -56.625,0 0,-262.25 113.375,0 0,262.25 -56.75,0 z"
       style="fill:#004586;fill-opacity:1;fill-rule:evenodd;stroke:none"
       id="path4403"
       inkscape:connector-curvature="0" />
    <path
       inkscape:connector-curvature="0"
       id="path4407"
       style="fill:none;stroke:#3465a4;stroke-width:1;stroke-linecap:butt;stroke-linejoin:round;stroke-miterlimit:10;stroke-dasharray:none;stroke-opacity:1"
       d="m 640.75,484.4872 -56.625,0 0,-262.25 113.375,0 0,262.25 -56.75,0 z" />
    <text
       id="text4411"
       style="font-variant:normal;font-weight:normal;font-size:22.5px;font-family:'Liberation Sans';-inkscape-font-specification:LiberationSans;writing-mode:lr-tb;fill:#ffffff;fill-opacity:1;fill-rule:nonzero;stroke:none"
       x="598.375"
       y="348.61221">
      <tspan
         id="tspan4413"
         sodipodi:role="line"
         y="348.61221"
         x="598.375 614.62 627.13 639.505 652.01501 664.39001 676.90002">Readout</tspan>
    </text>
    <text
       id="text4417"
       style="font-variant:normal;font-weight:normal;font-size:22.5px;font-family:'Liberation Sans';-inkscape-font-specification:LiberationSans;writing-mode:lr-tb;fill:#ffffff;fill-opacity:1;fill-rule:nonzero;stroke:none"
       x="614.625"
       y="373.73721">
      <tspan
         id="tspan4419"
         sodipodi:role="line"
         y="373.73721"
         x="614.625 627.13501 632.01752 644.52753 655.77753">block</tspan>
    </text>
    <text
       id="text4423"
       style="font-variant:normal;font-weight:normal;font-size:22.5px;font-family:'Liberation Sans';-inkscape-font-specification:LiberationSans;writing-mode:lr-tb;fill:#000000;fill-opacity:1;fill-rule:nonzero;stroke:none"
       x="507.875"
       y="334.73721">
      <tspan
         id="tspan4425"
         y="334.73721"
         x="507.875">…</tspan>
    </text>
  </g>
</svg>
